<svg width="145" height="146" fill="none" xmlns="http://www.w3.org/2000/svg"><mask id="a" fill="#fff"><path d="M125.123 106.373c.767-4.076.748-8.26-.058-12.33l11.072-26.72a.472.472 0 000-.054 45.411 45.411 0 017.772-13.495 3.6 3.6 0 00.892-3.3l-4.54-19.606a2.379 2.379 0 00-.241-.585c-.02-.036-.027-.08-.046-.114-.02-.033-.104-.116-.153-.178a2.425 2.425 0 00-.341-.4 2.273 2.273 0 00-.263-.159 2.44 2.44 0 00-.375-.227 2.388 2.388 0 00-.565-.138c-.056 0-.104-.036-.16-.041a2.418 2.418 0 00-1.332.297c-.036.02-.08.027-.116.049h-.024l-17.071 10.654a3.607 3.607 0 00-1.706 2.973 45.414 45.414 0 01-4.064 15.07v.026L108.27 71.47a32.431 32.431 0 00-8.636-3.119 130.622 130.622 0 001.253-23.771c4.5-5.4 6.66-12.372 6-19.37C105.376 11.121 92.643.946 92.099.518a2.417 2.417 0 00-3.832 2.522c1.245 4.675.167 9.61-9.03 19.756a14.148 14.148 0 00-3.314 15.417 18.766 18.766 0 003.442 5.56c-.584 3.735-1.044 7.272-1.36 10.717a121.07 121.07 0 00-.421 17.145 32.893 32.893 0 00-6.02 4.195L59.84 25.69c0-.051-.048-.087-.063-.133a2.289 2.289 0 00-.17-.467L47.63 2.972a5.582 5.582 0 00-10.487 2.456l-.909 25.13c0 .182.02.363.06.54v.109l11.963 51.051c-1.888.084-3.76.363-5.59.834L29.508 51.313a4.886 4.886 0 00-6.31-2.584L3.087 57.055a4.85 4.85 0 00-2.618 6.317l17.846 43.052c-10.46.549-18.578 9.33-18.308 19.8.27 10.47 8.83 18.821 19.304 18.83h106.372a19.34 19.34 0 0016.329-29.253 19.342 19.342 0 00-16.889-9.428zm-2.464-62.576l10.135-6.324-3.588 8.665a2.417 2.417 0 104.467 1.851l3.588-8.664 2.686 11.636a47.821 47.821 0 00-7.011 11.572 9.943 9.943 0 01-13.514-5.59 47.745 47.745 0 003.237-13.146zm-5.56 18.98a14.724 14.724 0 006.027 4.388 15.334 15.334 0 005.915 1.248c.49-.002.979-.032 1.465-.09l-7.714 18.616a32.808 32.808 0 00-10.381-12.835l4.688-11.326zm-33.12-17.266l12.145.742c.075 2.258.048 4.594-.027 6.965-4.046.29-8.112.093-12.111-.585-.305-.043-.603-.077-.905-.118.242-2.277.537-4.584.892-7.004h.005zm-1.154-19.468c6.419-7.081 9.745-12.528 10.519-17.648a32.333 32.333 0 018.725 17.329 21.66 21.66 0 01-4.893 15.743c-4.776-.29-9.499-.58-14.17-.87a10.083 10.083 0 01-.186-14.554h.005zm-.184 31.29l.701.092c3.116.482 6.26.75 9.412.8 1 0 2.055-.08 3.111-.162-.22 3.112-.58 6.36-1.037 9.719-.597-.032-1.182-.09-1.782-.09-3.65.007-7.272.63-10.714 1.845-.112-4.07-.01-8.144.305-12.204h.004zm-18.7 28.271l-6.916-29.463a2.417 2.417 0 00-4.707 1.103l6.215 26.518a27.384 27.384 0 00-5.27-1.313l-10.61-45.28c1.486.676 3.1 1.027 4.733 1.03.152 0 .314-.023.47-.03l1.708 7.299a2.417 2.417 0 104.707-1.103l-1.711-7.303a11.45 11.45 0 004.223-3.215L67.57 79.97a32.436 32.436 0 00-3.628 5.633zm-14.77-52.46a8.026 8.026 0 01-8.073-3.233l.307-8.515c.841.157 1.695.238 2.55.242a10.77 10.77 0 002.457-.273 12.315 12.315 0 004.482-2.23l4.071 7.515a8.02 8.02 0 01-5.795 6.498v-.005zM42.548 4.9a.753.753 0 01.831.373l5.183 9.585a8.25 8.25 0 01-3.263 1.813 8.219 8.219 0 01-3.726-.176l.394-10.894a.75.75 0 01.58-.7zM25.053 53.187L26.9 57.65l-8.945 3.704a2.418 2.418 0 001.857 4.462l8.944-3.706 1.85 4.468-4.475 1.854a2.418 2.418 0 101.852 4.468l4.475-1.855 1.85 4.468-8.953 3.711a2.418 2.418 0 101.852 4.468l8.945-3.704 1.956 4.722a28.066 28.066 0 00-15.654 19.052L4.93 61.513l20.122-8.326zm100.63 87.032H19.311c-8.011 0-14.505-6.494-14.505-14.505 0-8.011 6.494-14.506 14.505-14.506a14.27 14.27 0 014.137.6 2.417 2.417 0 003.116-2.27A22.967 22.967 0 0163.31 91.626a2.418 2.418 0 003.706-1.088c4.723-12.587 17.777-19.992 31.005-17.586 13.227 2.406 22.838 13.933 22.826 27.377a27.503 27.503 0 01-1.221 8.157 2.418 2.418 0 002.829 3.075 15.162 15.162 0 013.227-.353c8.012 0 14.506 6.495 14.506 14.506s-6.494 14.505-14.506 14.505z"/></mask><path d="M125.123 106.373c.767-4.076.748-8.26-.058-12.33l11.072-26.72a.472.472 0 000-.054 45.411 45.411 0 017.772-13.495 3.6 3.6 0 00.892-3.3l-4.54-19.606a2.379 2.379 0 00-.241-.585c-.02-.036-.027-.08-.046-.114-.02-.033-.104-.116-.153-.178a2.425 2.425 0 00-.341-.4 2.273 2.273 0 00-.263-.159 2.44 2.44 0 00-.375-.227 2.388 2.388 0 00-.565-.138c-.056 0-.104-.036-.16-.041a2.418 2.418 0 00-1.332.297c-.036.02-.08.027-.116.049h-.024l-17.071 10.654a3.607 3.607 0 00-1.706 2.973 45.414 45.414 0 01-4.064 15.07v.026L108.27 71.47a32.431 32.431 0 00-8.636-3.119 130.622 130.622 0 001.253-23.771c4.5-5.4 6.66-12.372 6-19.37C105.376 11.121 92.643.946 92.099.518a2.417 2.417 0 00-3.832 2.522c1.245 4.675.167 9.61-9.03 19.756a14.148 14.148 0 00-3.314 15.417 18.766 18.766 0 003.442 5.56c-.584 3.735-1.044 7.272-1.36 10.717a121.07 121.07 0 00-.421 17.145 32.893 32.893 0 00-6.02 4.195L59.84 25.69c0-.051-.048-.087-.063-.133a2.289 2.289 0 00-.17-.467L47.63 2.972a5.582 5.582 0 00-10.487 2.456l-.909 25.13c0 .182.02.363.06.54v.109l11.963 51.051c-1.888.084-3.76.363-5.59.834L29.508 51.313a4.886 4.886 0 00-6.31-2.584L3.087 57.055a4.85 4.85 0 00-2.618 6.317l17.846 43.052c-10.46.549-18.578 9.33-18.308 19.8.27 10.47 8.83 18.821 19.304 18.83h106.372a19.34 19.34 0 0016.329-29.253 19.342 19.342 0 00-16.889-9.428zm-2.464-62.576l10.135-6.324-3.588 8.665a2.417 2.417 0 104.467 1.851l3.588-8.664 2.686 11.636a47.821 47.821 0 00-7.011 11.572 9.943 9.943 0 01-13.514-5.59 47.745 47.745 0 003.237-13.146zm-5.56 18.98a14.724 14.724 0 006.027 4.388 15.334 15.334 0 005.915 1.248c.49-.002.979-.032 1.465-.09l-7.714 18.616a32.808 32.808 0 00-10.381-12.835l4.688-11.326zm-33.12-17.266l12.145.742c.075 2.258.048 4.594-.027 6.965-4.046.29-8.112.093-12.111-.585-.305-.043-.603-.077-.905-.118.242-2.277.537-4.584.892-7.004h.005zm-1.154-19.468c6.419-7.081 9.745-12.528 10.519-17.648a32.333 32.333 0 018.725 17.329 21.66 21.66 0 01-4.893 15.743c-4.776-.29-9.499-.58-14.17-.87a10.083 10.083 0 01-.186-14.554h.005zm-.184 31.29l.701.092c3.116.482 6.26.75 9.412.8 1 0 2.055-.08 3.111-.162-.22 3.112-.58 6.36-1.037 9.719-.597-.032-1.182-.09-1.782-.09-3.65.007-7.272.63-10.714 1.845-.112-4.07-.01-8.144.305-12.204h.004zm-18.7 28.271l-6.916-29.463a2.417 2.417 0 00-4.707 1.103l6.215 26.518a27.384 27.384 0 00-5.27-1.313l-10.61-45.28c1.486.676 3.1 1.027 4.733 1.03.152 0 .314-.023.47-.03l1.708 7.299a2.417 2.417 0 104.707-1.103l-1.711-7.303a11.45 11.45 0 004.223-3.215L67.57 79.97a32.436 32.436 0 00-3.628 5.633zm-14.77-52.46a8.026 8.026 0 01-8.073-3.233l.307-8.515c.841.157 1.695.238 2.55.242a10.77 10.77 0 002.457-.273 12.315 12.315 0 004.482-2.23l4.071 7.515a8.02 8.02 0 01-5.795 6.498v-.005zM42.548 4.9a.753.753 0 01.831.373l5.183 9.585a8.25 8.25 0 01-3.263 1.813 8.219 8.219 0 01-3.726-.176l.394-10.894a.75.75 0 01.58-.7zM25.053 53.187L26.9 57.65l-8.945 3.704a2.418 2.418 0 001.857 4.462l8.944-3.706 1.85 4.468-4.475 1.854a2.418 2.418 0 101.852 4.468l4.475-1.855 1.85 4.468-8.953 3.711a2.418 2.418 0 101.852 4.468l8.945-3.704 1.956 4.722a28.066 28.066 0 00-15.654 19.052L4.93 61.513l20.122-8.326zm100.63 87.032H19.311c-8.011 0-14.505-6.494-14.505-14.505 0-8.011 6.494-14.506 14.505-14.506a14.27 14.27 0 014.137.6 2.417 2.417 0 003.116-2.27A22.967 22.967 0 0163.31 91.626a2.418 2.418 0 003.706-1.088c4.723-12.587 17.777-19.992 31.005-17.586 13.227 2.406 22.838 13.933 22.826 27.377a27.503 27.503 0 01-1.221 8.157 2.418 2.418 0 002.829 3.075 15.162 15.162 0 013.227-.353c8.012 0 14.506 6.495 14.506 14.506s-6.494 14.505-14.506 14.505z" fill="#fff" stroke="#000E1D" stroke-width="2" mask="url(#a)"/><path d="M95.028 36.702a1.918 1.918 0 01-1.519.755v-.005a1.918 1.918 0 01-1.535-3.068h0l.004-.006a13.93 13.93 0 002.488-10.447l-.005-.03-.008-.029a1.917 1.917 0 113.702-.998 17.632 17.632 0 01-3.127 13.828zm-10.303 76.01l.247.338.377-.184a11.4 11.4 0 014.966-1.158 11.59 11.59 0 0110.521 6.756 1.918 1.918 0 01-3.49 1.591l-.002-.002a7.752 7.752 0 00-7.029-4.51h0c-1.734 0-3.417.59-4.77 1.673a1.9 1.9 0 01-.174.087l-.066.029-.054.046c-.037.031-.074.06-.113.088a.856.856 0 01-.07.015l-.035.006-.034.012a2.477 2.477 0 01-.754.128 1.683 1.683 0 01-.338-.053l-.012-.004-.013-.002a1.894 1.894 0 01-.329-.101 1.848 1.848 0 01-.29-.183l-.013-.01-.013-.009a1.787 1.787 0 01-.293-.245.796.796 0 00-.095-.085l-.031-.023a2.033 2.033 0 01-.063-.125l-.028-.06-.042-.051a2.023 2.023 0 01-.117-.154 10.073 10.073 0 00-9.177-5.814c-5.617.001-10.17 4.554-10.17 10.171v0c0 1.402.286 2.79.839 4.079a1.918 1.918 0 01-1.013 2.515h-.001a1.876 1.876 0 01-.75.153h0a1.917 1.917 0 01-1.765-1.165 14.006 14.006 0 0124.194-13.749zM42.877 94.884l.208-.067a1.923 1.923 0 011.02 3.702h-.001a8.812 8.812 0 00-5.952 7.825v.029a1.918 1.918 0 11-3.836 0c0-4.262 2.04-7.095 4.142-8.892 2.112-1.806 4.27-2.548 4.419-2.597zm33.991-3.574h-.002a1.917 1.917 0 01-1.394-2.326l.001-.003a14.559 14.559 0 0113.95-11.118 1.918 1.918 0 01.008 3.835v0h-.011a10.81 10.81 0 00-10.23 8.22 1.917 1.917 0 01-1.858 1.45h-.001a1.9 1.9 0 01-.463-.057z" fill="#fff" stroke="#000E1D"/></svg>