<svg width="144" height="144" fill="none" xmlns="http://www.w3.org/2000/svg"><g filter="url(#filter0_i)" fill="#fff" stroke="#000E1D"><path d="M61.14 111.04l.07-.562H15.926C7.42 110.478.5 103.558.5 95.052V16.135C.5 7.629 7.42.708 15.927.708h112.146c8.506 0 15.427 6.921 15.427 15.427v78.917c0 8.506-6.921 15.426-15.427 15.426H82.791l.07.562 1.993 16.105.055.438h6.498c4.44 0 8.051 3.612 8.051 8.051v3.033h12.796a2.313 2.313 0 110 4.625H31.746a2.313 2.313 0 010-4.625h12.796v-3.033c0-4.439 3.612-8.051 8.05-8.051h6.5l.055-.438 1.994-16.105zm33.193 27.627h.5v-3.033a3.43 3.43 0 00-3.426-3.426H52.593a3.43 3.43 0 00-3.426 3.426v3.033h45.166zm-14.65-11.084h.565l-.07-.561-1.993-16.105-.055-.439H65.87l-.054.439-1.994 16.105-.07.561h15.932zM5.625 92.212h-.5v2.84c0 5.956 4.845 10.801 10.802 10.801h112.146c5.957 0 10.802-4.845 10.802-10.801v-2.84h-13.156a2.313 2.313 0 010-4.625h13.156V16.135c0-5.957-4.845-10.802-10.802-10.802H15.927c-5.957 0-10.802 4.845-10.802 10.802v71.452h98.094a2.312 2.312 0 010 4.625H5.625z"/><path d="M121.345 13.628l-.322.382-2.68-2.257a2.313 2.313 0 00-2.979 3.538l1.587 1.337 1.048.883H41.886l1.048-.883 1.588-1.337s0 0 0 0a2.313 2.313 0 00-2.98-3.538l79.803 1.875zm0 0l-.322.382a7.582 7.582 0 012.704 5.813c0 2.412-.994 4.057-2.16 5.285-.589.62-1.219 1.13-1.798 1.585l-.219.171c-.47.366-.919.716-1.229 1.047a2.313 2.313 0 01-2.957-3.557l1.587-1.336 1.048-.883H41.886m79.459-8.507l-79.46 8.508m0 0l1.049.882m-1.048-.883l1.048.883m0 0l1.588 1.337s0 0 0 0m-1.588-1.337l1.588 1.337m0 0a2.313 2.313 0 01.279 3.258l-.28-3.258zm-5.66-10.345l2.68-2.256 3.259 15.86a2.306 2.306 0 01-1.77.822c-.657 0-1.102-.225-1.69-.701-.224-.182-.456-.39-.726-.63l-.312-.278a24.15 24.15 0 00-1.45-1.2c-3.6-3.04-3.589-8.587.01-11.617 0 0 0 0 0 0zM22.818 32.821v-1.37l-.882 1.048-1.337 1.588a2.312 2.312 0 01-3.556-2.957c.33-.31.68-.758 1.045-1.227l.173-.22c.454-.58.966-1.21 1.586-1.798 1.229-1.167 2.874-2.162 5.284-2.162 2.412 0 4.056.995 5.285 2.16.619.589 1.13 1.22 1.584 1.798l.172.22c.366.47.716.919 1.047 1.229 1.237 1.505.152 3.78-1.786 3.78-.782 0-1.288-.324-1.737-.79-.223-.23-.423-.488-.64-.765l-.03-.04a7.978 7.978 0 00-.736-.854l-.847-.816v42.086l.883-1.048 1.337-1.588s0 0 0 0a2.313 2.313 0 013.556 2.957c-.33.31-.68.757-1.045 1.226L32 75.5c-.454.579-.966 1.21-1.586 1.798-1.229 1.167-2.875 2.162-5.284 2.162-2.412 0-4.057-.995-5.285-2.161-.62-.588-1.131-1.22-1.585-1.798a76.027 76.027 0 01-.171-.22c-.366-.47-.717-.918-1.047-1.228a2.313 2.313 0 013.556-2.957s0 0 0 0l1.337 1.588.882 1.048V32.82zm25.056 2.149h17.602c3.945 0 7.155 3.21 7.155 7.154v27.9c0 3.944-3.21 7.154-7.155 7.154H47.874c-3.944 0-7.154-3.21-7.154-7.155v-27.9c0-3.944 3.21-7.154 7.154-7.154zm17.602 37.583a2.532 2.532 0 002.53-2.53v-27.9a2.532 2.532 0 00-2.53-2.529H47.874a2.532 2.532 0 00-2.53 2.53v27.9a2.532 2.532 0 002.53 2.529h17.602zM84.785 34.97h27.227c3.944 0 7.154 3.21 7.154 7.154v4.31c0 3.945-3.21 7.155-7.154 7.155H84.785c-3.945 0-7.155-3.21-7.155-7.154v-4.311c0-3.945 3.21-7.155 7.155-7.155zm27.227 13.994a2.531 2.531 0 002.529-2.53v-4.31a2.532 2.532 0 00-2.529-2.53H84.785a2.532 2.532 0 00-2.53 2.53v4.31a2.532 2.532 0 002.53 2.53h27.227zm-27.227 9.594h27.227c3.944 0 7.154 3.21 7.154 7.154v4.311c0 3.945-3.21 7.155-7.154 7.155H84.785c-3.945 0-7.155-3.21-7.155-7.155v-4.31c0-3.945 3.21-7.155 7.155-7.155zm27.227 13.995a2.532 2.532 0 002.529-2.53v-4.31a2.531 2.531 0 00-2.529-2.53H84.785a2.532 2.532 0 00-2.53 2.53v4.31a2.532 2.532 0 002.53 2.53h27.227zm2.457 15.034h.007a2.312 2.312 0 010 4.625 2.316 2.316 0 01-2.316-2.313 2.31 2.31 0 012.309-2.312z"/></g><defs><filter id="filter0_i" x="0" y=".208" width="144" height="143.583" filterUnits="userSpaceOnUse" color-interpolation-filters="sRGB"><feFlood flood-opacity="0" result="BackgroundImageFix"/><feBlend in="SourceGraphic" in2="BackgroundImageFix" result="shape"/><feColorMatrix in="SourceAlpha" values="0 0 0 0 0 0 0 0 0 0 0 0 0 0 0 0 0 0 127 0" result="hardAlpha"/><feOffset/><feGaussianBlur stdDeviation="1.5"/><feComposite in2="hardAlpha" operator="arithmetic" k2="-1" k3="1"/><feColorMatrix values="0 0 0 0 0 0 0 0 0 0.054902 0 0 0 0 0.113725 0 0 0 1 0"/><feBlend in2="shape" result="effect1_innerShadow"/></filter></defs></svg>