<svg width="140" height="114" fill="none" xmlns="http://www.w3.org/2000/svg"><g filter="url(#filter0_i)" fill="#fff" stroke="#000E1D"><path d="M135.75 105.375v0V18.25H4.25v87.125h0a3.876 3.876 0 003.875 3.875h123.75a3.875 3.875 0 003.875-3.875zm-.5-90.625h.5V8.625v0a3.876 3.876 0 00-1.136-2.74l-.353.354.353-.353a3.876 3.876 0 00-2.739-1.136h0H8.125h0A3.878 3.878 0 004.25 8.625v6.125h131zM2.913 3.413A7.384 7.384 0 018.125 1.25h123.75a7.382 7.382 0 017.375 7.376v96.748a7.38 7.38 0 01-2.163 5.213 7.38 7.38 0 01-5.213 2.163H8.126a7.382 7.382 0 01-7.376-7.375V8.625a7.384 7.384 0 012.163-5.212z"/><path d="M11.5 11.5H9.25a1.75 1.75 0 010-3.5h2.25a1.75 1.75 0 010 3.5zm9 0h-2.25a1.75 1.75 0 010-3.5h2.25a1.75 1.75 0 010 3.5zm9 0h-2.25a1.75 1.75 0 010-3.5h2.25a1.75 1.75 0 010 3.5zM25 40.75h0a2.752 2.752 0 00-2.75 2.75v0A2.75 2.75 0 1025 40.75zm3.472 7.947a6.25 6.25 0 01-3.471 1.053 6.258 6.258 0 01-6.251-6.25 6.25 6.25 0 119.722 5.197z"/><path d="M59.25 57.276l-.854-.853-11.907-11.91s0 0 0 0a1.754 1.754 0 00-2.478 0s0 0 0 0L30.98 57.547l-.354.353-.354-.354-4.032-4.035 33.011 3.764zm0 0V56.07m0 1.207V56.07m0 0V29.5h-46v34.526m46-7.957l-46 7.957m0 0l.854-.853m-.854.853l.854-.853m0 0l9.657-9.66v-.001a1.754 1.754 0 012.477 0l-12.134 9.66zm2.473 2.473l-.853.854h18.553l-.855-.854-4.01-4.007a.554.554 0 00-.054-.054l-4.004-4.008-.354-.353-.354.353-8.069 8.07zm42.173.854h.5v-4.276l-.146-.147-13.5-13.5-.354-.353-.354.353-11.444 11.444-.353.354.353.354 5.625 5.625.147.146H58.75zM11.5 26H61a1.75 1.75 0 011.75 1.75v40.5A1.75 1.75 0 0161 70H11.5a1.75 1.75 0 01-1.75-1.75v-40.5A1.75 1.75 0 0111.5 26zm114.75 15.75h.5V29.5h-55v12.25h54.5zM70 26h58.5a1.749 1.749 0 011.75 1.75V43.5a1.747 1.747 0 01-1.75 1.75H70a1.75 1.75 0 01-1.75-1.75V27.75A1.75 1.75 0 0170 26zm0 24.75h58.5a1.749 1.749 0 010 3.5H70a1.75 1.75 0 110-3.5zm0 6.75h58.5a1.749 1.749 0 010 3.5H70a1.75 1.75 0 110-3.5zm0 6.75h58.5a1.749 1.749 0 010 3.5H70a1.75 1.75 0 110-3.5zM97 74.5H70a1.75 1.75 0 110-3.5h27a1.75 1.75 0 110 3.5zm-27 7.75h58.5a1.749 1.749 0 010 3.5H70a1.75 1.75 0 110-3.5zM70 89h27a1.75 1.75 0 110 3.5H70a1.75 1.75 0 110-3.5zm-49.5-6.75h.5V79h-7.75v3.25h7.25zm-9-6.75h11.25a1.75 1.75 0 011.75 1.75V84a1.75 1.75 0 01-1.75 1.75H11.5A1.75 1.75 0 019.75 84v-6.75a1.75 1.75 0 011.75-1.75zm18 0H61a1.75 1.75 0 110 3.5H29.5a1.75 1.75 0 010-3.5zm18 10.25h-18a1.75 1.75 0 010-3.5h18a1.75 1.75 0 110 3.5zM20.5 98h.5v-3.25h-7.75V98h7.25zm-9-6.75h11.25A1.75 1.75 0 0124.5 93v6.75a1.749 1.749 0 01-1.75 1.75H11.5a1.747 1.747 0 01-1.75-1.75V93a1.75 1.75 0 011.75-1.75zm18 0H61a1.75 1.75 0 110 3.5H29.5a1.75 1.75 0 010-3.5zm0 6.75h18a1.75 1.75 0 110 3.5h-18a1.747 1.747 0 01-1.75-1.75A1.75 1.75 0 0129.5 98z"/></g><defs><filter id="filter0_i" x=".25" y=".75" width="139.5" height="112.5" filterUnits="userSpaceOnUse" color-interpolation-filters="sRGB"><feFlood flood-opacity="0" result="BackgroundImageFix"/><feBlend in="SourceGraphic" in2="BackgroundImageFix" result="shape"/><feColorMatrix in="SourceAlpha" values="0 0 0 0 0 0 0 0 0 0 0 0 0 0 0 0 0 0 127 0" result="hardAlpha"/><feOffset/><feGaussianBlur stdDeviation="1.5"/><feComposite in2="hardAlpha" operator="arithmetic" k2="-1" k3="1"/><feColorMatrix values="0 0 0 0 0 0 0 0 0 0.054902 0 0 0 0 0.113725 0 0 0 1 0"/><feBlend in2="shape" result="effect1_innerShadow"/></filter></defs></svg>